# xmcd
#
# Track frame offsets: 
#        150
#        36614
#        60634
#        97349
#        126137
#        145800
#        169844
#        198315
#        234049
#        261514
#        285883
#        307401
#        324930
#
# Disc length: 4613 seconds
#
# Revision: 0
# Processed by: cddbd v1.5.2PL0 Copyright (c) Steve Scherf et al.
# Submitted via: ExactAudioCopyFreeDBPlugin 1.0
#
DISCID=c212030d
DTITLE=Various Artist - The Chic Organisation: Up All Night CD2
DYEAR=2013
DGENRE=Disco
TTITLE0=Chic - Good Times
TTITLE1=Diana Ross - I'm Coming Out
TTITLE2=Carly Simon - Why (12-inch version)
TTITLE3=Chic - My Forbidden Lover (12-inch version)
TTITLE4=Sister Sledge - Thinking Of You
TTITLE5=Johnny Mathis - I Love My Lady
TTITLE6=Debbie Harry - Backfired (12-inch version)
TTITLE7=Chic - Soup For One (12-inch version)
TTITLE8=Norma Jean Wright - High Society (12-inch version)
TTITLE9=Sister Sledge - Reach Your Peak (12-inch version)
TTITLE10=Sheila and B. Devotion - Your Love Is Good (12-inch version)
TTITLE11=Diana Ross - My Old Piano
TTITLE12=Chic - Chic Cheer
EXTD=
EXTT0=
EXTT1=
EXTT2=
EXTT3=
EXTT4=
EXTT5=
EXTT6=
EXTT7=
EXTT8=
EXTT9=
EXTT10=
EXTT11=
EXTT12=
PLAYORDER=
